<svg width="345" height="126" viewBox="0 0 345 126" fill="none" xmlns="http://www.w3.org/2000/svg">
<path fill-rule="evenodd" clip-rule="evenodd" d="M40.764 51.1721H32.4117H4.23846C1.99457 51.1721 0 49.2809 0 46.8854C0 44.616 1.86991 42.5987 4.23846 42.5987H32.4117V13.979C32.4117 11.7096 34.2816 9.69238 36.6502 9.69238C38.8941 9.69238 40.8886 11.5835 40.8886 13.979V42.5987V51.046L40.764 51.1721Z" fill="#2F5CA2"/>
<path fill-rule="evenodd" clip-rule="evenodd" d="M43.8848 54.8315H52.237H80.4103C82.6541 54.8315 84.6487 56.7227 84.6487 59.1182C84.6487 61.3876 82.7788 63.4048 80.4103 63.4048H52.237V92.0245C52.237 94.294 50.3671 96.1851 47.9986 96.1851C45.7547 96.1851 43.8848 94.294 43.8848 92.0245V63.4048V54.9575V54.8315Z" fill="#2F5CA2"/>
<path fill-rule="evenodd" clip-rule="evenodd" d="M43.8848 44.614V51.17H50.3671H60.3399C62.0852 51.17 63.5811 49.6571 63.5811 47.892C63.5811 46.1269 62.0852 44.614 60.3399 44.614H50.3671V33.1408C50.3671 31.3758 48.8712 29.8628 47.1259 29.8628C45.3807 29.8628 43.8848 31.3758 43.8848 33.1408V44.614Z" fill="#7D828D"/>
<path fill-rule="evenodd" clip-rule="evenodd" d="M40.7608 61.2553V54.6992H34.2785H24.3056C22.5604 54.6992 21.0645 56.2122 21.0645 57.9773C21.0645 59.7424 22.5604 61.2553 24.3056 61.2553H34.2785V72.7284C34.2785 74.4935 35.7744 76.0064 37.5196 76.0064C39.2649 76.0064 40.7608 74.4935 40.7608 72.7284V61.2553Z" fill="#7D828D"/>
<path fill-rule="evenodd" clip-rule="evenodd" d="M295.57 46.889L302.052 46.2586C302.302 48.9062 303.05 51.0496 304.172 52.8147C305.293 54.5797 307.039 55.8405 309.407 56.9753C311.776 57.9839 314.518 58.6143 317.51 58.6143C320.128 58.6143 322.497 58.2361 324.491 57.4796C326.486 56.7231 327.982 55.5884 328.979 54.2015C329.976 52.8147 330.475 51.3018 330.475 49.6627C330.475 48.0238 329.976 46.5108 329.104 45.3761C328.106 44.1153 326.61 43.1067 324.367 42.2242C322.995 41.7198 319.879 40.8373 315.017 39.7025C310.156 38.5679 306.789 37.4332 304.919 36.4246C302.427 35.0377 300.556 33.3987 299.31 31.5075C298.063 29.4902 297.44 27.347 297.44 24.9514C297.44 22.3038 298.188 19.7822 299.684 17.3868C301.18 15.1174 303.423 13.2262 306.291 12.0915C309.158 10.8307 312.399 10.3264 315.889 10.3264C319.754 10.3264 323.245 10.9568 326.112 12.2176C329.104 13.4784 331.347 15.3695 332.968 17.765C334.588 20.1605 335.461 23.0603 335.586 26.0862L328.979 26.5905C328.605 23.1864 327.359 20.6648 325.363 19.0258C323.245 17.2607 320.253 16.5042 316.264 16.5042C312.025 16.5042 309.033 17.2607 307.039 18.8997C305.168 20.4126 304.172 22.3038 304.172 24.5732C304.172 26.4644 304.795 28.1034 306.166 29.2381C307.537 30.4989 311.028 31.7597 316.638 33.0205C322.247 34.2812 326.112 35.4159 328.231 36.4246C331.223 37.8114 333.592 39.5765 334.963 41.8459C336.459 43.9893 337.082 46.5108 337.082 49.4106C337.082 52.1843 336.333 54.8319 334.713 57.3535C333.092 59.875 330.849 61.7662 327.857 63.1531C324.865 64.5399 321.499 65.1703 317.759 65.1703C313.022 65.1703 309.033 64.4138 305.917 63.027C302.676 61.6402 300.182 59.4968 298.437 56.7231C296.567 53.9494 295.694 50.7974 295.57 47.2673V46.889ZM258.296 42.0981H276.123L270.638 27.347C269.017 22.9342 267.77 19.1518 266.898 16.2521C266.15 19.6562 265.153 23.0603 264.031 26.4644L258.296 41.972V42.0981ZM243.212 63.9096L263.283 10.8307H270.887L292.204 63.9096H284.351L278.242 47.7716H256.178L250.443 63.9096H243.088H243.212ZM203.197 34.2812H218.031C221.148 34.2812 223.641 33.903 225.511 33.2726C227.256 32.6422 228.627 31.5075 229.625 30.1206C230.497 28.6078 230.995 27.0948 230.995 25.3297C230.995 22.8082 230.123 20.7909 228.254 19.1518C226.508 17.5129 223.641 16.7564 219.776 16.7564H203.197V34.2812ZM196.216 63.9096V10.8307H219.402C224.139 10.8307 227.63 11.335 229.999 12.2176C232.367 13.2262 234.362 14.8652 235.858 17.2607C237.354 19.6562 237.977 22.3038 237.977 25.2036C237.977 28.9859 236.73 32.1379 234.362 34.7855C231.993 37.3071 228.254 38.9461 223.266 39.7025C225.137 40.5851 226.508 41.4677 227.505 42.3502C229.5 44.2413 231.495 46.6369 233.24 49.4106L242.34 63.9096H233.614L226.633 52.8147C224.638 49.6627 222.893 47.1412 221.646 45.5022C220.275 43.8632 219.153 42.6024 218.156 41.972C217.159 41.3416 216.037 40.8373 215.039 40.5851C214.292 40.459 212.92 40.333 211.175 40.333H203.197V63.9096H196.216ZM156.573 42.0981L162.308 26.5905C163.555 23.1864 164.427 19.7822 165.175 16.3782C166.048 19.2779 167.294 22.9342 168.915 27.473L174.4 42.2242H156.573V42.0981ZM141.49 63.9096H148.844L154.579 47.7716H176.644L182.752 63.9096H190.605L169.289 10.8307H161.685L141.615 63.9096H141.49ZM110.823 36.0463H124.411C128.899 36.0463 132.14 35.1638 134.01 33.5248C135.88 31.8858 136.877 29.4902 136.877 26.3383C136.877 24.0689 136.378 22.1778 135.257 20.6648C134.135 19.0258 132.639 18.0172 130.894 17.5129C129.771 17.2607 127.528 17.0086 124.411 17.0086H110.948V35.9202L110.823 36.0463ZM103.842 63.9096V10.8307H123.663C127.153 10.8307 129.771 10.9568 131.641 11.335C134.259 11.7133 136.378 12.5958 138.124 13.8566C139.869 15.1174 141.241 16.7564 142.362 19.0258C143.484 21.1691 143.983 23.5647 143.983 26.2122C143.983 30.751 142.611 34.5334 139.745 37.6854C136.877 40.8373 131.766 42.3502 124.411 42.3502H110.948V64.0357H103.966L103.842 63.9096Z" fill="#2F5CA2"/>
<path fill-rule="evenodd" clip-rule="evenodd" d="M287.468 74.7491V95.5519H283.479V86.6004H274.129V95.5519H270.14V74.7491H274.129V83.1964H283.479V74.7491H287.468ZM262.038 78.2793H255.43V95.5519H251.441V78.2793H244.834V74.7491H262.038V78.2793ZM227.631 95.5519V74.7491H231.62V92.0218H242.092V95.5519H227.631ZM213.046 87.483L210.178 79.288L207.187 87.483H213.046ZM208.433 74.623H211.924L219.777 95.4259H215.664L213.793 90.2567H206.564L204.694 95.4259H200.58L208.433 74.623ZM193.973 91.8957V95.4259H179.636V74.623H193.723V78.1532H183.626V83.1964H192.353V86.4743H183.626V91.8957H193.973ZM169.789 74.623V95.4259H165.799V86.4743H156.45V95.4259H152.461V74.623H156.45V83.0703H165.799V74.623H169.789Z" fill="#757D87"/>
</svg>
